<svg xmlns="http://www.w3.org/2000/svg" width="350" height="375" viewBox="0 0 350 375" version="1.1"><path d="" stroke="none" fill="#fc5c64" fill-rule="evenodd"/><path d="M 162.341 1.029 C 147.744 3.655, 132.965 13.236, 123.052 26.500 C 120.997 29.250, 117.217 35.201, 114.652 39.724 C 109.346 49.085, 61.118 144.788, 50.263 167.500 C 46.320 175.750, 39.871 189.250, 35.932 197.500 C 21.925 226.835, 6.807 260.610, 4.401 267.940 C 0.850 278.761, -0.317 288.023, 0.298 300.500 C 1.955 334.066, 24.046 361.483, 58.035 372.156 C 68.238 375.360, 89.510 375.386, 101.175 372.210 C 121.790 366.597, 140.828 354.892, 160.770 335.571 L 173.524 323.215 184.516 333.857 C 213.375 361.800, 240.173 375, 268.043 375 C 299.775 375, 329.687 354.632, 341.725 324.828 C 350.210 303.823, 349.797 281.172, 340.534 259.500 C 336.045 248.997, 331.108 238.197, 324.366 224.134 C 320.315 215.682, 317 208.610, 317 208.418 C 317 208.226, 313.625 201.019, 309.500 192.401 C 305.375 183.784, 302 176.557, 302 176.340 C 302 175.492, 255.425 82.156, 243.995 60.098 C 229.966 33.025, 226.079 26.939, 217.068 17.939 C 205.566 6.448, 193.501 1.198, 177 0.502 C 171.775 0.282, 165.179 0.519, 162.341 1.029 M 166.389 26.446 C 152.010 29.673, 144.564 36.771, 133.286 58 C 114.500 93.361, 84.258 153.828, 64.017 196.500 C 46.665 233.081, 34 260.115, 34 260.572 C 34 260.777, 32.900 263.320, 31.556 266.223 C 21.725 287.450, 22.186 309.225, 32.811 325.542 C 41.791 339.332, 56.860 348.960, 72.234 350.730 C 97.100 353.594, 119.049 343.583, 146.183 317 L 157.921 305.500 149.946 295 C 119.063 254.337, 104.919 214.183, 111.558 186.015 C 117.047 162.725, 135.603 144.784, 159.762 139.410 C 174.650 136.097, 194.842 139.135, 207.588 146.605 C 214.226 150.494, 225.125 161.149, 228.908 167.447 C 235.316 178.112, 237.294 185.836, 237.373 200.500 C 237.474 219.175, 233.802 233.329, 223.303 254.738 C 216.361 268.892, 201.012 292.279, 192.179 302.157 L 189.804 304.814 197.152 312.570 C 206.267 322.191, 222.424 335.169, 232.370 340.860 C 251.808 351.982, 273.451 354.082, 290.574 346.510 C 313.329 336.446, 326.892 311.632, 323.117 286.972 C 322.448 282.600, 321.084 276.656, 320.086 273.762 C 317.026 264.886, 303.548 235.730, 270.368 166.218 C 261.367 147.360, 226.356 77.464, 217.915 61.500 C 213.553 53.250, 208.296 44.270, 206.233 41.545 C 196.691 28.934, 181.297 23.101, 166.389 26.446 M 167.688 162.122 C 148.766 164.798, 136.345 178.539, 135.234 198.027 C 134.407 212.531, 137.870 225.825, 147.435 244.871 C 153.354 256.655, 173.255 286.208, 174.387 284.892 C 182.684 275.234, 199.076 248.575, 204.755 235.500 C 211.143 220.795, 212.448 215.048, 212.475 201.500 C 212.498 190.422, 212.285 189.039, 209.698 183.500 C 202.321 167.706, 186.202 159.503, 167.688 162.122" stroke="none" fill="#fc5c5c" fill-rule="evenodd"/></svg>